<svg width="1689" height="309" viewBox="0 0 1689 309" fill="none" xmlns="http://www.w3.org/2000/svg">
<path d="M71.3448 183.888L61.8616 184.045V195.345M71.3448 183.888V231.363M71.3448 183.888L81.7379 183.716M71.3448 231.363L61.8616 231.308V219.06M71.3448 231.363L81.7379 231.424M81.7379 231.424V183.716M81.7379 231.424L91.6725 231.482M81.7379 183.716L91.6725 183.551M91.6725 183.551V231.482M91.6725 183.551L102.723 183.368M91.6725 231.482L102.723 231.547M102.723 231.547V183.368M102.723 231.547L113.531 231.61M102.723 183.368L113.531 183.189M113.531 183.189V231.61M113.531 183.189L124.361 183.009M113.531 231.61L124.361 231.674M124.361 231.674V183.009M124.361 231.674L134.731 231.734M124.361 183.009L134.731 182.837M134.731 182.837V231.734M134.731 182.837L146.228 182.647M134.731 231.734L146.228 231.802M146.228 231.802V182.647M146.228 231.802L157.263 231.866M146.228 182.647L157.263 182.464M157.263 182.464V231.866M157.263 182.464L180.019 182.086M157.263 231.866L191.063 232.064M180.019 232.064V182.086M180.019 182.086L191.063 181.903M191.063 181.903V232.064M191.063 181.903L202.782 181.709M191.063 232.064L202.782 232.132M202.782 181.709V232.132M202.782 181.709L215.056 181.506M202.782 232.132L215.742 232.208M215.742 232.208L215.056 181.506M215.742 232.208L227.076 232.275M215.056 181.506L227.076 181.306M227.076 181.306V232.275M227.076 181.306L239.358 181.103M227.076 232.275L239.358 232.346M239.358 232.346V181.103M239.358 232.346L251.102 232.415M239.358 181.103L251.102 180.908M251.102 180.908V232.415M251.102 180.908L263.924 180.695M251.102 232.415L263.924 232.49M263.924 232.49V180.695M263.924 232.49L275.801 232.56M263.924 180.695L275.801 180.499M275.801 180.499V232.56M275.801 180.499L288.626 180.286M275.801 232.56L289.312 232.639M288.626 180.286L289.312 232.639M288.626 180.286L302.284 180.06M289.312 232.639L302.284 232.715M302.284 232.715V180.06M302.284 232.715L314.837 232.788M302.284 180.06L314.837 179.851M314.837 179.851V232.788M314.837 179.851L327.259 179.645M314.837 232.788L328.079 232.865M328.079 232.865L327.259 179.645M328.079 232.865L341.322 232.943M327.259 179.645L340.496 179.426M341.322 232.943L340.496 179.426M341.322 232.943L368.477 233.102M340.496 179.426L368.477 178.962M368.477 178.962V233.102M368.477 178.962L381.711 178.743M368.477 233.102L382.675 233.185M381.711 178.743L382.675 233.185M381.711 178.743L396.183 178.503M382.675 233.185L396.183 233.264M396.183 178.503V233.264M396.183 178.503L410.251 178.27M396.183 233.264L410.933 233.35M410.251 178.27L410.933 233.35M410.251 178.27L425.538 178.016M410.933 233.35L425.538 233.436M425.538 233.436V178.016M425.538 233.436L439.863 233.52M425.538 178.016L439.863 177.779M439.863 177.779V233.52M439.863 177.779L453.93 177.546M439.863 233.52L453.93 233.602M453.93 177.546V233.602M453.93 177.546L469.216 177.292M453.93 233.602L469.216 233.691M469.216 233.691V177.292M469.216 233.691L483.957 233.778M469.216 177.292L483.957 177.048M483.957 177.048V233.778M483.957 177.048H493.216M483.957 233.778H494.876M61.8616 195.345V206.811M61.8616 195.345L494.571 190.975M61.8616 206.811V219.06M61.8616 206.811L494.876 204.986M61.8616 219.06L494.876 219.629M503.299 233.778H514.093M503.299 219.035H514.093" stroke="#A4A4A4"/>
<path d="M764.907 111.49L727.274 113.331V132.425M764.907 111.49V231.356M764.907 111.49L799.778 109.784V231.52M764.907 231.356L727.274 231.178V210.294M764.907 231.356L799.778 231.52M799.778 231.52H834.02V210.294M881.232 231.905L921.173 232.094M881.232 231.905V126.091M881.232 231.905L846.001 231.52V210.925M921.173 232.094V103.845L881.232 105.799V126.091M921.173 232.094H958.616V187.926M1011.01 232.518L1009.52 99.5234L1053.67 97.3634L1055.46 232.728L1011.01 232.518ZM1011.01 232.518H973.367L972.979 210.222M1154.81 233.197L1202.84 233.424M1154.81 233.197L1153.24 114.102M1154.81 233.197H1112.54L1112.27 209.53M1202.84 233.424V90.0661L1152.96 92.5063L1153.24 114.102M1202.84 233.424L1250.62 233.197V208.513M1314.12 233.95L1312.06 84.7228L1366.5 82.6517L1369.02 234.209M1314.12 233.95L1369.02 234.209M1314.12 233.95L1263.42 233.71V208.139M1369.02 234.209L1422.26 234.461L1421.76 208.139M1491.18 76.2051L1492.9 234.516M1491.18 76.2051L1550.12 73.0771M1491.18 76.2051L1433.89 79.1941V105.348M1492.9 234.516H1552.34M1492.9 234.516L1436.03 234.461L1435.39 208.139M1552.34 234.516L1611.57 233.936V205.52M1552.34 234.516L1550.12 73.0771M1550.12 73.0771L1611.57 70.0707V97.9661M1611.57 205.52V178.669M1611.57 205.52L1435.39 208.139M727.274 210.294V191.199M727.274 210.294H834.02M727.274 191.199V170.614M727.274 191.199H834.02M1611.57 178.669V153.906M1611.57 178.669L1434.92 181.818M1611.57 153.906V125.861M1611.57 153.906L1434.44 156.909M727.274 170.614V151.519M727.274 170.614L834.02 168.958M727.274 151.519V132.425M727.274 151.519L834.02 148.904M1611.57 125.861V97.9661M1611.57 125.861L1433.89 130.506M1611.57 97.9661L1433.89 105.348M727.274 132.425L834.02 127.047V148.904M1433.89 105.348V130.506M1433.89 130.506L1434.44 156.909M1434.44 156.909L1434.92 181.818M1434.92 181.818L1435.39 208.139M1263.42 134.258V110.921L1419.78 105.348L1420.27 130.506M1263.42 134.258L1420.27 130.506M1263.42 134.258V158.142M1420.27 130.506L1420.77 156.909M1420.77 156.909L1263.42 158.142M1420.77 156.909L1421.25 181.818M1263.42 158.142V183.83M1421.25 181.818L1263.42 183.83M1421.25 181.818L1421.76 208.139M1263.42 183.83V208.139M1421.76 208.139H1263.42M834.02 148.904V168.958M834.02 168.958V191.199M834.02 191.199V210.294M881.232 126.091L846.001 127.047V147.766M881.232 126.091L957.83 122.479L957.985 143.999M957.985 143.999L846.001 147.766M957.985 143.999L958.139 165.515M846.001 147.766V168.958M846.001 168.958L958.139 165.515M846.001 168.958V190.33M958.139 165.515L958.616 187.926M958.616 187.926L846.001 190.33M846.001 190.33V210.925M846.001 210.925L957.83 210.294M1055.46 233.197H1097.96L1097.63 209.53M971.829 143.999L971.429 121.007L1096.35 117.12L1096.67 140.108M971.829 143.999L1096.67 140.108M971.829 143.999L972.203 165.515M1096.67 140.108L1096.98 162.63M1096.98 162.63L972.203 165.515M1096.98 162.63L1097.3 185.863M972.203 165.515L972.592 187.926M972.592 187.926L1097.3 185.863M972.592 187.926L972.979 210.222M1097.3 185.863L1097.63 209.53M1097.63 209.53L972.979 210.222M1153.24 114.102L1111.21 115.428L1111.48 139.162M1153.24 114.102L1250.62 111.8V135.287M1250.62 135.287L1111.48 139.162M1250.62 135.287V159.306M1111.48 139.162L1111.74 162.63M1111.74 162.63L1250.62 159.306M1111.74 162.63L1112.01 185.863M1250.62 159.306V183.83M1250.62 183.83L1112.01 185.863M1250.62 183.83V208.513M1112.01 185.863L1112.27 209.53M1112.27 209.53L1250.62 208.513" stroke="#A4A4A4" stroke-width="1.5"/>
<path d="M846.447 127.18L880.705 125.845L880.705 106.543L846.447 108.059L846.447 127.18Z" stroke="#A4A4A4" stroke-width="2.5"/>
<path d="M833.542 127.247V108.623L800.182 110.248V128.601L833.542 127.247Z" stroke="#A4A4A4" stroke-width="2.5"/>
<path d="M922.418 104.364V123.334L957.306 121.864V102.813L922.418 104.364Z" stroke="#A4A4A4" stroke-width="2.5"/>
<path d="M971.542 102.047L1008.59 100.082V119.385L971.939 120.873L971.542 102.047Z" stroke="#A4A4A4" stroke-width="2.5"/>
<path d="M1095.84 95.9713L1055.33 97.8271V118.033L1095.84 116.28V95.9713Z" stroke="#A4A4A4" stroke-width="2.5"/>
<path d="M1111.2 95.0058L1151.72 93.0849L1152.09 113.815L1111.72 115.005L1111.2 95.0058Z" stroke="#A4A4A4" stroke-width="2.5"/>
<path d="M1250.04 111.229L1203.51 112.309V90.5201L1250.04 88.2459V111.229Z" stroke="#A4A4A4" stroke-width="2.5"/>
<path d="M1263.5 87.6109L1310.76 85.3072L1311.24 108.502L1263.91 109.958L1263.5 87.6109Z" stroke="#A4A4A4" stroke-width="2.5"/>
<path d="M1366.07 83.076L1419.18 81.1207L1419.32 104.802L1367.25 106.436L1366.07 83.076Z" stroke="#A4A4A4" stroke-width="2.5"/>
<path d="M1662.18 46.4449C1671.85 44.9098 1679.61 25.6897 1664.76 19.2829L1639.42 20.6904M1662.18 46.4449L1639.42 47.6999M1662.18 46.4449L1639.42 64.0752M723.11 71.5778C717.987 75.1384 710.815 85.4548 723.11 98.2348H725.9M723.11 71.5778L704.769 68.5381V93.2738M723.11 71.5778L1611.96 22.2153M835.573 91.4839L836.424 268.58M835.573 91.4839H845.518M835.573 91.4839L725.9 98.2348M845.518 91.4839V269.686M845.518 91.4839L958.231 85.2678M1639.42 47.6999L1432.74 59.0984M1639.42 47.6999V64.0752M725.9 268.58V98.2348M725.9 268.58L959.83 272.631M725.9 268.58L706.384 276.064M958.231 85.2678L959.83 272.631M958.231 85.2678L969.717 84.6343M959.83 272.631L972.446 272.85M969.717 84.6343L972.446 272.85M969.717 84.6343L1096.46 77.6442M972.446 272.85L1100.01 275.059M1096.46 77.6442L1100.01 275.059M1096.46 77.6442L1109.9 76.9034M1100.01 275.059L1112.67 275.278M1109.9 76.9034L1112.67 275.278M1109.9 76.9034L1251.99 69.067M1112.67 275.278L1251.99 277.691M1251.99 69.067V277.691M1251.99 69.067L1262.65 68.4791M1251.99 277.691L1265.06 277.917M1262.65 68.4791L1265.06 277.917M1262.65 68.4791L1419.68 59.8185M1265.06 277.917L1424.33 280.676M1419.68 59.8185L1424.33 280.676M1419.68 59.8185L1432.74 59.0984M1424.33 280.676L1437.3 280.901M1432.74 59.0984L1437.3 280.901M1437.3 280.901L1639.42 284.401V64.0752M1639.42 20.6904V8.79126L1625.31 10.511M1639.42 20.6904L1625.31 21.4738M1625.31 10.511V21.4738M1625.31 10.511L1611.96 22.2153M1625.31 21.4738L1611.96 22.2153M706.384 276.064L704.769 93.2738M706.384 276.064H615.793M704.769 93.2738L605.88 98.2348C577.794 96.1075 552.556 92.4824 538.969 102.863H512.811L512.811 116.359M514.58 204.411L515.468 265.222L9.66284 255.04V168.367L493.475 158.803M550.447 267.56L551.077 211.851C556.101 209.506 583.282 208.393 602.274 211.851V275.528" stroke="#A4A4A4" stroke-width="4"/>
<path d="M638.157 96.5V81.2688L646.529 80.455M646.529 80.455V95.8023M646.529 80.455L654.784 81.2688V95.221M681.874 93.1282V84.4081H687.804M687.804 84.4081V92.5468M687.804 84.4081L692.222 85.1057V92.5468" stroke="#A4A4A4" stroke-width="1.5"/>
<path d="M654.784 89.0588L660.248 83.1292M660.248 83.1292V90.3377M660.248 83.1292L667.908 90.3377M660.248 83.1292L668.852 84.2337M681.991 91.0353L677.456 85.3382L668.852 84.2337M681.991 91.8492L677.456 92.0715M660.248 90.3377H654.784M660.248 90.3377H667.908M667.908 90.3377L670.131 92.4306L677.456 92.0715M668.852 84.2337L677.456 92.0715M371.075 159.993V155.898H373.941M384.725 159.993V155.898H380.084M373.941 155.898V148.937H371.075V141.975H382.541V148.937H380.084V155.898M373.941 155.898H380.084" stroke="#A4A4A4"/>
<path d="M492.922 98.1339L495.435 265.25H503.445L501.875 98.1339H492.922Z" stroke="#A4A4A4" stroke-width="3"/>
<path d="M503.759 203.838H518.523V116.825H502.503" stroke="#A4A4A4" stroke-width="2"/>
<path d="M503.124 122.306H517.658L517.909 157.141H504.234M506.022 156.709L508.118 146.054M508.118 146.054L512.666 122.933C514.992 124.465 518.834 129.633 515.601 138.049C512.367 146.465 509.265 146.892 508.118 146.054ZM508.118 146.054L511.213 149.184M511.213 156.709V149.184M511.213 149.184H517.203M504.332 141.022L508.264 123.336C509.934 125.482 512.423 131.106 508.667 138.049C504.912 144.992 503.83 140.694 504.332 141.022ZM504.332 141.022L503.124 145.853" stroke="#A4A4A4" stroke-width="1.5"/>
<path d="M511.662 150.816L512.913 151.571L512.093 149.413M517.423 150.967L516.171 151.722L516.991 149.564M511.662 155.93L512.913 155.175L512.093 157.332M517.423 155.779L516.171 155.024L516.991 157.181" stroke="#A4A4A4"/>
<path d="M541.869 117.191C550.938 110.389 588.87 112.586 606.703 114.534L608.297 203.814C572.443 198.854 549.781 201.747 542.931 203.814L541.869 117.191Z" stroke="#A4A4A4" stroke-width="2.5"/>
<path d="M519.194 118.431H533.388M541.739 118.431H533.388M541.739 137.413H519.194M519.194 155.866H541.739M542.666 174.01H519.194M548.439 266.481V248.031M548.439 266.481H534.471M548.439 266.481V267.393L530.753 266.861M542.666 211.225H548.439V229.58M542.666 211.225V192.875H519.194L519.52 211.225M542.666 211.225H519.52M519.52 211.225L519.847 229.58M519.847 229.58H548.439M519.847 229.58L520.174 248.031M548.439 229.58V248.031M520.174 248.031L520.502 266.481H534.471M520.174 248.031H548.439M534.471 266.481L533.388 118.431" stroke="#A4A4A4" stroke-width="1.5"/>
<path d="M548.832 114.819L549.779 202.11M555.747 113.526L556.611 201.011M563.601 113.526L564.319 200.519M571.224 112.521L571.845 200.519L580.446 201.011L579.701 112.521L589.58 113.526V202.11H598.964L598.099 113.526M607.357 178.067C590.659 175.447 554.097 173.03 541.543 180.055M607.885 138.287C591.186 135.667 554.624 133.25 542.07 140.275M607.357 165.855C590.659 163.235 554.624 160.818 542.07 167.843M607.949 152.375C591.25 149.755 555.216 147.158 542.662 154.183M608.476 190.891C591.778 188.271 555.216 185.854 542.662 192.879M607.357 126.669C590.659 124.049 554.097 121.632 541.543 128.657" stroke="#A4A4A4"/>
<path d="M622.525 158.216L623.181 176.987L646.353 176.351M622.525 158.216L621.924 139.572L645.638 138.825M622.525 158.216L697.823 156.103M697.823 156.103L697.58 137.209L674.084 137.996M697.823 156.103L698.115 174.61L675.111 175.384M645.638 138.825L646.353 176.351M645.638 138.825H647.49M646.353 176.351L648.629 176.274M648.629 176.274L647.49 138.825M648.629 176.274L673.372 175.442M647.49 138.825L672.328 137.996M672.328 137.996L673.372 175.442M672.328 137.996H674.084M673.372 175.442L675.111 175.384M675.111 175.384L674.084 137.996" stroke="#A4A4A4" stroke-width="2.5"/>
<path d="M623.035 229.06L623.039 246.793L646.879 246.615M623.035 229.06L623.031 211.327L646.879 210.599M623.035 229.06L698.621 227.626M698.621 227.626L698.573 209.022L675.652 209.721M698.621 227.626L698.669 246.23L675.653 246.401M646.879 210.599L646.879 246.615M646.879 210.599L648.889 210.538M646.879 246.615L649.157 246.598M649.157 246.598L648.889 210.538M649.157 246.598L673.913 246.414M648.889 210.538L673.731 209.78M673.731 209.78L673.913 246.414M673.731 209.78L675.652 209.721M673.913 246.414L675.653 246.401M675.653 246.401L675.652 209.721" stroke="#A4A4A4" stroke-width="2.5"/>
<path d="M602.484 268.722L503.533 267.526V270.611M503.533 270.611L602.484 271.629M503.533 270.611H500.47V273.564M500.47 273.564L602.484 274.768H615.039M500.47 273.564H497.093V276.745M497.093 276.745L605.131 277.977M497.093 276.745H493.618V279.926M605.131 277.977V281.497M605.131 277.977L615.039 274.768M493.618 279.926L605.131 281.497M493.618 279.926H489.907V283.123L605.131 285.18M605.131 281.497V285.18M605.131 281.497L617.161 277.072M605.131 285.18L619.282 280.105V277.072H617.161M615.039 274.768V277.072H617.161" stroke="#A4A4A4" stroke-width="1.5"/>
<path d="M489.483 283.379L489.371 266.353L480.002 266.353L479.829 283.379L489.483 283.379Z" stroke="#A4A4A4"/>
<path d="M10.3404 166.288V155.9L177.962 164.69" stroke="#A4A4A4" stroke-width="2"/>
<path d="M168.764 164.906V252.554L160.952 258.169M353.825 161.244V255.239L343.571 261.343" stroke="#A4A4A4" stroke-width="3"/>
<path d="M434.719 154.941V158.72M488.637 153.807V157.712M285.815 157.964V161.744M240.715 159.224V163.507M207.457 163.507V159.98H211.74V163.507M197.127 163.507V159.98M158.326 164.389V160.61H161.853M171.553 164.389V160.61H167.018M161.853 160.61V154.815H158.326V148.768H169.286V154.815H167.018V160.61M161.853 160.61H167.018M104.66 159.98V155.949H108.061V149.902H94.7074V155.949H98.8646V159.98" stroke="#A4A4A4"/>
<path d="M634.029 109.876V105.173M681.624 102.351V107.054M533.194 109.876V114.767M631.959 194.344V200.552" stroke="#A4A4A4" stroke-width="4"/>
<path d="M20.5546 185.077L52.2468 184.643V231.448H20.5546V185.077Z" stroke="#A4A4A4" stroke-width="2"/>
<path d="M25.9194 211.789L41.7313 203.368" stroke="#A4A4A4" stroke-width="5"/>
<path d="M32.8619 194.498V219.584H46.4796" stroke="#A4A4A4" stroke-width="5"/>
<path d="M571.331 263.476H587.296M571.331 263.476H566.582M571.331 263.476V244.581M571.331 211.338V244.581M587.296 263.476V211.338M587.296 263.476H601.038M566.582 263.476L552.133 266.608M566.582 263.476V244.581M566.582 211.338V225.686M566.582 225.686H601.038M566.582 225.686V244.581M566.582 244.581H571.331" stroke="#A4A4A4"/>
<path d="M572.241 244.833V262.8H599.825V244.833M572.241 244.833V226.999H599.825V244.833M572.241 244.833H587.296H599.825" stroke="#A4A4A4" stroke-width="2"/>
</svg>
